<?xml version="1.0" standalone="no"?>
<!DOCTYPE svg PUBLIC "-//W3C//DTD SVG 20010904//EN"
 "http://www.w3.org/TR/2001/REC-SVG-20010904/DTD/svg10.dtd">
<svg version="1.0" xmlns="http://www.w3.org/2000/svg"
 width="663.000000pt" height="376.000000pt" viewBox="0 0 663.000000 376.000000"
 preserveAspectRatio="xMidYMid meet">

<g transform="translate(0.000000,376.000000) scale(0.100000,-0.100000)"
fill="#000000" stroke="none">
<path d="M1964 3338 c3 -46 15 -175 26 -288 10 -113 28 -311 40 -440 21 -249
44 -500 85 -950 42 -467 64 -709 76 -857 7 -78 15 -147 19 -153 6 -10 95 -36
605 -175 306 -83 342 -93 430 -116 l80 -21 245 67 c135 37 286 78 335 92 106
29 223 61 395 107 l125 33 12 129 c6 71 21 239 33 374 19 220 40 450 85 950 9
91 18 199 21 240 2 41 14 172 24 290 33 369 59 672 64 738 l4 62 -1355 0
-1356 0 7 -82z m2219 -475 c2 -5 -1 -69 -8 -143 -8 -74 -18 -193 -24 -265 -6
-71 -22 -251 -36 -400 -14 -148 -30 -328 -35 -400 -6 -71 -17 -197 -26 -280
-8 -82 -17 -178 -21 -212 l-6 -62 -46 -14 c-55 -17 -55 -17 -389 -109 l-262
-72 -63 16 c-34 8 -196 53 -359 98 -284 79 -297 84 -303 109 -5 27 -45 479
-45 519 l0 22 178 -2 177 -3 13 -140 c7 -77 15 -141 16 -142 2 -2 85 -25 186
-52 171 -46 187 -49 224 -37 79 25 152 45 242 67 l91 21 7 87 c10 132 25 283
32 314 l6 27 -592 0 c-463 0 -592 3 -595 13 -5 13 -35 341 -31 344 1 1 281 3
623 4 l621 1 10 92 c6 50 13 123 16 162 l5 71 -361 6 c-199 4 -493 7 -655 7
-272 0 -293 1 -293 18 0 9 -7 80 -15 157 -8 77 -15 148 -15 157 0 17 29 18
438 21 1129 7 1291 7 1295 0z"/>
</g>
</svg>
